<mxfile host="app.diagrams.net" modified="2023-02-24T02:30:59.948Z" agent="5.0 (Macintosh; Intel Mac OS X 10_15_7) AppleWebKit/537.36 (KHTML, like Gecko) Chrome/110.0.0.0 Safari/537.36" etag="FJ69imAGFSNGacs96GwX" version="20.8.23" type="github">
  <diagram name="第 1 页" id="L4gDUB5HOPaYCPxyjkHu">
    <mxGraphModel dx="1562" dy="815" grid="1" gridSize="10" guides="1" tooltips="1" connect="1" arrows="1" fold="1" page="1" pageScale="1" pageWidth="827" pageHeight="1169" math="0" shadow="0">
      <root>
        <mxCell id="0" />
        <mxCell id="1" parent="0" />
        <mxCell id="UtM-PFLI9E5dDEgyjao9-10" value="" style="edgeStyle=orthogonalEdgeStyle;rounded=0;orthogonalLoop=1;jettySize=auto;html=1;" edge="1" parent="1" source="UtM-PFLI9E5dDEgyjao9-1" target="UtM-PFLI9E5dDEgyjao9-9">
          <mxGeometry relative="1" as="geometry" />
        </mxCell>
        <mxCell id="UtM-PFLI9E5dDEgyjao9-1" value="配置beanxxlJobExecutor" style="rounded=0;whiteSpace=wrap;html=1;" vertex="1" parent="1">
          <mxGeometry x="50" y="200" width="120" height="60" as="geometry" />
        </mxCell>
        <mxCell id="UtM-PFLI9E5dDEgyjao9-8" value="" style="edgeStyle=orthogonalEdgeStyle;rounded=0;orthogonalLoop=1;jettySize=auto;html=1;" edge="1" parent="1" source="UtM-PFLI9E5dDEgyjao9-7" target="UtM-PFLI9E5dDEgyjao9-1">
          <mxGeometry relative="1" as="geometry" />
        </mxCell>
        <mxCell id="UtM-PFLI9E5dDEgyjao9-7" value="&lt;div style=&quot;background-color:#ffffff;color:#080808;font-family:&#39;JetBrains Mono&#39;,monospace;font-size:9.0pt;&quot;&gt;&lt;pre&gt;SmartInitializingSingleton&lt;/pre&gt;&lt;/div&gt;" style="rounded=0;whiteSpace=wrap;html=1;" vertex="1" parent="1">
          <mxGeometry x="50" width="120" height="70" as="geometry" />
        </mxCell>
        <mxCell id="UtM-PFLI9E5dDEgyjao9-9" value="&lt;div style=&quot;background-color:#ffffff;color:#080808;font-family:&#39;JetBrains Mono&#39;,monospace;font-size:9.0pt;&quot;&gt;&lt;pre&gt;&lt;div style=&quot;font-family: &amp;quot;JetBrains Mono&amp;quot;, monospace; font-size: 9pt;&quot;&gt;&lt;pre&gt;XxlJobSpringExecutor&lt;/pre&gt;&lt;/div&gt;&lt;/pre&gt;&lt;/div&gt;" style="whiteSpace=wrap;html=1;rounded=0;" vertex="1" parent="1">
          <mxGeometry x="250" y="200" width="120" height="60" as="geometry" />
        </mxCell>
      </root>
    </mxGraphModel>
  </diagram>
</mxfile>
